<?xml version="1.0" encoding="iso-8859-1"?>
<!-- Generator: Adobe Illustrator 19.0.0, SVG Export Plug-In . SVG Version: 6.00 Build 0)  -->
<svg version="1.1" id="Layer_1" xmlns="http://www.w3.org/2000/svg" xmlns:xlink="http://www.w3.org/1999/xlink" x="0px" y="0px"
	 viewBox="0 0 511.999 511.999" style="enable-background:new 0 0 511.999 511.999;" xml:space="preserve">
<path style="fill:#F36280;" d="M511.733,77.9c0-22.259-3.191-44.304-9.483-65.522c-1.177-3.967-5.176-6.387-9.237-5.579
	c-61.027,12.119-116.644,45.309-156.607,93.453c-40.489,48.781-62.788,110.618-62.788,174.118c0,8.698,0.428,17.571,1.274,26.376
	c0,0.004,0.001,0.007,0.002,0.012c0.001,0.006,0,0.014,0.001,0.02c8.413,87.541,59.088,166.103,135.557,210.152
	c1.229,0.708,2.609,1.069,3.998,1.069c0.835,0,1.673-0.13,2.485-0.395c2.158-0.705,3.917-2.293,4.837-4.368
	c8.681-19.589,13.082-40.457,13.082-62.021c0-40.699-15.787-79.024-44.452-107.912c-15.815-15.938-34.534-27.972-54.968-35.619
	c41.097-9.802,78.789-30.816,109.321-61.503C487.947,196.772,511.733,139.14,511.733,77.9z"/>
<path style="fill:#FF8397;" d="M291.227,290.699c-0.348-5.472-0.524-10.937-0.524-16.327c0-59.524,20.9-117.486,58.85-163.208
	c35.66-42.96,84.599-73.217,138.548-85.827c4.349,17.127,6.549,34.769,6.549,52.564c0,56.693-22.021,110.046-62.004,150.232
	C394.661,266.307,344.715,288.338,291.227,290.699z"/>
<path style="fill:#C971C2;" d="M476.394,56.414c-0.267-2.44-1.638-4.623-3.72-5.923c-2.082-1.301-4.647-1.575-6.956-0.74
	c-40.126,14.46-75.749,39.469-103.02,72.325c-32.605,39.28-51.997,89.071-54.603,140.197c-0.125,2.446,0.877,4.816,2.719,6.429
	c1.472,1.291,3.353,1.986,5.279,1.986c0.483,0,0.97-0.044,1.452-0.132c39.088-7.208,74.701-26.045,102.987-54.475
	c36.777-36.962,57.031-86.036,57.031-138.182C477.564,70.738,477.17,63.51,476.394,56.414z"/>
<path style="fill:#FF8397;" d="M409.984,490.698c-63.699-40.262-106.595-106.752-116.865-181.142
	c32.185,2.667,62.13,16.577,85.155,39.782c25.469,25.666,39.494,59.717,39.494,95.878
	C417.768,460.89,415.153,476.144,409.984,490.698z"/>
<path style="fill:#C971C2;" d="M366.146,361.372c-10.614-10.698-22.905-19.164-36.53-25.165c-2.877-1.266-6.229-0.735-8.571,1.362
	c-2.342,2.098-3.24,5.372-2.296,8.37c12.87,40.878,36.584,77.635,68.578,106.297c1.498,1.342,3.408,2.044,5.345,2.044
	c1.092,0,2.194-0.223,3.232-0.682c2.878-1.27,4.746-4.109,4.774-7.256l0.005-1.126C400.684,413.594,388.418,383.816,366.146,361.372
	z"/>
<g>
	<circle style="fill:#FABBE7;" cx="375.591" cy="187.929" r="25.627"/>
	<circle style="fill:#FABBE7;" cx="418.302" cy="136.676" r="25.627"/>
</g>
<g>
	<path style="fill:#AB5DA9;" d="M444.996,111.049h-1.068c-4.717,0-8.542-3.825-8.542-8.542c0-4.717,3.825-8.542,8.542-8.542h1.068
		c4.717,0,8.542,3.825,8.542,8.542C453.539,107.224,449.714,111.049,444.996,111.049z"/>
	<path style="fill:#AB5DA9;" d="M342.49,230.64h-1.068c-4.717,0-8.542-3.825-8.542-8.542c0-4.717,3.825-8.542,8.542-8.542h1.068
		c4.717,0,8.542,3.825,8.542,8.542C351.032,226.815,347.207,230.64,342.49,230.64z"/>
	<path style="fill:#AB5DA9;" d="M342.49,367.316h-1.068c-4.717,0-8.542-3.825-8.542-8.542c0-4.717,3.825-8.542,8.542-8.542h1.068
		c4.717,0,8.542,3.825,8.542,8.542C351.032,363.491,347.207,367.316,342.49,367.316z"/>
	<path style="fill:#AB5DA9;" d="M368.116,401.485h-1.068c-4.717,0-8.542-3.825-8.542-8.542s3.825-8.542,8.542-8.542h1.068
		c4.717,0,8.542,3.825,8.542,8.542S372.834,401.485,368.116,401.485z"/>
	<path style="fill:#AB5DA9;" d="M385.201,435.654h-1.068c-4.717,0-8.542-3.825-8.542-8.542s3.825-8.542,8.542-8.542h1.068
		c4.717,0,8.542,3.825,8.542,8.542S389.918,435.654,385.201,435.654z"/>
</g>
<path style="fill:#F36280;" d="M0.266,77.9c0-22.259,3.191-44.304,9.483-65.522c1.177-3.967,5.176-6.387,9.237-5.579
	c61.027,12.119,116.644,45.309,156.607,93.453c40.489,48.781,62.788,110.618,62.788,174.118c0,8.698-0.428,17.571-1.274,26.376
	c0,0.004-0.001,0.007-0.002,0.012c-0.001,0.006,0,0.014-0.001,0.02c-8.413,87.541-59.088,166.103-135.557,210.152
	c-1.229,0.708-2.609,1.069-3.998,1.069c-0.835,0-1.673-0.13-2.485-0.395c-2.158-0.705-3.917-2.293-4.837-4.368
	c-8.681-19.589-13.082-40.457-13.082-62.021c0-40.699,15.787-79.024,44.452-107.912c15.815-15.938,34.534-27.972,54.968-35.619
	c-41.097-9.802-78.789-30.816-109.321-61.503C24.052,196.772,0.266,139.14,0.266,77.9z"/>
<path style="fill:#FF8397;" d="M220.772,290.699c0.348-5.472,0.524-10.937,0.524-16.327c0-59.524-20.9-117.486-58.85-163.208
	C126.788,68.203,77.848,37.947,23.9,25.337c-4.349,17.127-6.549,34.769-6.549,52.564c0,56.693,22.021,110.046,62.004,150.232
	C117.338,266.307,167.284,288.338,220.772,290.699z"/>
<path style="fill:#C971C2;" d="M35.605,56.414c0.267-2.44,1.638-4.623,3.72-5.923c2.082-1.301,4.647-1.575,6.956-0.74
	c40.126,14.46,75.749,39.469,103.02,72.325c32.605,39.28,51.997,89.071,54.603,140.197c0.125,2.446-0.877,4.816-2.719,6.429
	c-1.472,1.291-3.353,1.986-5.279,1.986c-0.483,0-0.97-0.044-1.452-0.132c-39.088-7.208-74.701-26.045-102.987-54.475
	C54.689,179.12,34.435,130.046,34.435,77.9C34.435,70.738,34.829,63.51,35.605,56.414z"/>
<path style="fill:#FF8397;" d="M102.015,490.698c63.699-40.262,106.595-106.752,116.865-181.142
	c-32.185,2.667-62.13,16.577-85.155,39.782c-25.468,25.666-39.494,59.717-39.494,95.878
	C94.231,460.89,96.846,476.144,102.015,490.698z"/>
<path style="fill:#C971C2;" d="M145.853,361.372c10.614-10.698,22.905-19.164,36.53-25.165c2.877-1.266,6.229-0.735,8.571,1.362
	c2.342,2.098,3.24,5.372,2.296,8.37c-12.87,40.878-36.584,77.635-68.578,106.297c-1.498,1.342-3.408,2.044-5.345,2.044
	c-1.092,0-2.194-0.223-3.232-0.682c-2.878-1.27-4.746-4.109-4.774-7.256l-0.005-1.126
	C111.315,413.594,123.581,383.816,145.853,361.372z"/>
<g>
	<circle style="fill:#FABBE7;" cx="136.408" cy="187.929" r="25.627"/>
	<circle style="fill:#FABBE7;" cx="93.697" cy="136.676" r="25.627"/>
</g>
<g>
	<path style="fill:#AB5DA9;" d="M171.645,230.64h-1.068c-4.717,0-8.542-3.825-8.542-8.542c0-4.717,3.825-8.542,8.542-8.542h1.068
		c4.717,0,8.542,3.825,8.542,8.542C180.187,226.815,176.362,230.64,171.645,230.64z"/>
	<path style="fill:#AB5DA9;" d="M69.138,111.049H68.07c-4.717,0-8.542-3.825-8.542-8.542c0-4.717,3.825-8.542,8.542-8.542h1.068
		c4.717,0,8.542,3.825,8.542,8.542C77.68,107.224,73.856,111.049,69.138,111.049z"/>
	<path style="fill:#AB5DA9;" d="M171.645,367.316h-1.068c-4.717,0-8.542-3.825-8.542-8.542c0-4.717,3.825-8.542,8.542-8.542h1.068
		c4.717,0,8.542,3.825,8.542,8.542C180.187,363.491,176.362,367.316,171.645,367.316z"/>
	<path style="fill:#AB5DA9;" d="M146.018,401.485h-1.068c-4.717,0-8.542-3.825-8.542-8.542s3.825-8.542,8.542-8.542h1.068
		c4.717,0,8.542,3.825,8.542,8.542S150.736,401.485,146.018,401.485z"/>
	<path style="fill:#AB5DA9;" d="M128.934,435.654h-1.068c-4.717,0-8.542-3.825-8.542-8.542s3.825-8.542,8.542-8.542h1.068
		c4.717,0,8.542,3.825,8.542,8.542S133.651,435.654,128.934,435.654z"/>
</g>
<path style="fill:#F9C900;" d="M230.958,185.487c-5.663,32.014-9.127,74.896-9.127,122.033c0,99.073,15.298,179.387,34.169,179.387
	s34.169-80.314,34.169-179.387c0-46.694-3.399-89.216-8.968-121.132L230.958,185.487z"/>
<g>
	<path style="fill:#F9AA0C;" d="M285.108,213.556h-58.215c-0.646,5.505-1.238,11.206-1.769,17.084h61.756
		C286.346,224.761,285.754,219.061,285.108,213.556z"/>
	<path style="fill:#F9AA0C;" d="M222.805,264.809h66.387c-0.27-5.812-0.596-11.51-0.972-17.084h-64.444
		C223.402,253.3,223.077,258.997,222.805,264.809z"/>
	<path style="fill:#F9AA0C;" d="M221.869,298.978h68.261c-0.051-5.77-0.155-11.469-0.309-17.084h-67.644
		C222.025,287.509,221.92,293.208,221.869,298.978z"/>
	<path style="fill:#F9AA0C;" d="M222.179,333.147h67.641c0.153-5.615,0.257-11.313,0.31-17.084H221.87
		C221.921,321.834,222.026,327.532,222.179,333.147z"/>
	<path style="fill:#F9AA0C;" d="M223.777,367.316h64.444c0.375-5.574,0.699-11.274,0.97-17.084h-66.384
		C223.078,356.042,223.402,361.742,223.777,367.316z"/>
	<path style="fill:#F9AA0C;" d="M226.89,401.485h58.22c0.646-5.505,1.238-11.206,1.769-17.084h-61.757
		C225.652,390.279,226.244,395.979,226.89,401.485z"/>
	<path style="fill:#F9AA0C;" d="M232.09,435.654h47.819c1.042-5.361,2.02-11.063,2.926-17.084h-53.671
		C230.07,424.591,231.048,430.292,232.09,435.654z"/>
</g>
<g>
	<path style="fill:#754F1E;" d="M273.084,153.76c-4.717,0-8.542-3.825-8.542-8.542V34.169C264.542,15.328,279.87,0,298.711,0
		c18.841,0,34.169,15.328,34.169,34.169c0,4.717-3.825,8.542-8.542,8.542s-8.542-3.825-8.542-8.542
		c0-9.42-7.665-17.084-17.084-17.084c-9.42,0-17.084,7.665-17.084,17.084v111.049C281.626,149.935,277.801,153.76,273.084,153.76z"
		/>
	<path style="fill:#754F1E;" d="M238.915,153.76c-4.717,0-8.542-3.825-8.542-8.542V34.169c0-9.42-7.665-17.084-17.084-17.084
		s-17.084,7.665-17.084,17.084c0,4.717-3.825,8.542-8.542,8.542c-4.717,0-8.542-3.825-8.542-8.542
		C179.119,15.328,194.447,0,213.288,0s34.169,15.328,34.169,34.169v111.049C247.457,149.935,243.632,153.76,238.915,153.76z"/>
</g>
<circle style="fill:#F9AA0C;" cx="255.999" cy="162.302" r="34.169"/>
<path style="fill:#EA802C;" d="M273.084,179.387c-18.871,0-34.169-15.298-34.169-34.169c0-5.013,1.088-9.768,3.027-14.057
	c-11.857,5.361-20.112,17.283-20.112,31.142c0,18.871,15.298,34.169,34.169,34.169c13.859,0,25.78-8.255,31.142-20.112
	C282.852,178.299,278.097,179.387,273.084,179.387z"/>
<g>
</g>
<g>
</g>
<g>
</g>
<g>
</g>
<g>
</g>
<g>
</g>
<g>
</g>
<g>
</g>
<g>
</g>
<g>
</g>
<g>
</g>
<g>
</g>
<g>
</g>
<g>
</g>
<g>
</g>
</svg>
